<svg width="265" height="172" viewBox="0 0 265 172" fill="none" xmlns="http://www.w3.org/2000/svg">
<path d="M7.36664 7.51C7.93319 6.45925 9.01598 5.99999 10.2044 5.88715C20.611 4.89899 75.3454 0 137.65 0C196.063 0 240.502 4.30605 253.018 5.65833C255.283 5.90306 257.248 7.16813 258.004 9.31714C260.409 16.1517 265 35.6401 265 84.8347C265 134.775 260.269 154.101 257.897 160.654C257.188 162.611 255.434 163.829 253.381 164.17C242.049 166.047 200.729 172 132.5 172C59.8951 172 17.7618 165.259 9.80939 163.861C8.87667 163.697 8.03853 163.314 7.55742 162.498C5.4042 158.847 0 143.811 0 84.8347C0 27.5309 5.10212 11.7099 7.36664 7.51Z" fill="#F2F9FF"/>
</svg>
